<?xml version="1.0" encoding="UTF-8" standalone="no"?>
<svg
   xmlns:dc="http://purl.org/dc/elements/1.1/"
   xmlns:cc="http://creativecommons.org/ns#"
   xmlns:rdf="http://www.w3.org/1999/02/22-rdf-syntax-ns#"
   xmlns:svg="http://www.w3.org/2000/svg"
   xmlns="http://www.w3.org/2000/svg"
   xmlns:sodipodi="http://sodipodi.sourceforge.net/DTD/sodipodi-0.dtd"
   xmlns:inkscape="http://www.inkscape.org/namespaces/inkscape"
   width="230.26537"
   height="227.64622"
   version="1.1"
   viewBox="0 0 60.924078 60.231101"
   id="svg90"
   sodipodi:docname="wiki_logo_5.svg"
   inkscape:version="0.92.2 5c3e80d, 2017-08-06">
  <sodipodi:namedview
     pagecolor="#ffffff"
     bordercolor="#666666"
     borderopacity="1"
     objecttolerance="10"
     gridtolerance="10"
     guidetolerance="10"
     inkscape:pageopacity="0"
     inkscape:pageshadow="2"
     inkscape:window-width="640"
     inkscape:window-height="480"
     id="namedview92"
     showgrid="false"
     fit-margin-top="0"
     fit-margin-left="0"
     fit-margin-right="0"
     fit-margin-bottom="0"
     inkscape:zoom="0.921875"
     inkscape:cx="96.127967"
     inkscape:cy="114.13961"
     inkscape:window-x="112"
     inkscape:window-y="98"
     inkscape:window-maximized="0"
     inkscape:current-layer="svg90" />
  <defs
     id="defs6">
    <clipPath
       id="clipPath4">
      <rect
         transform="matrix(1,0,0.19057,0.98167,0,0)"
         x="-46.335999"
         y="24.524"
         width="11.37"
         height="16.622"
         id="rect2"
         style="fill:#4d4d4d" />
    </clipPath>
  </defs>
  <metadata
     id="metadata8">
    <rdf:RDF>
      <cc:Work
         rdf:about="">
        <dc:format>image/svg+xml</dc:format>
        <dc:type
           rdf:resource="http://purl.org/dc/dcmitype/StillImage" />
        <dc:title></dc:title>
      </cc:Work>
    </rdf:RDF>
  </metadata>
  <g
     transform="translate(1.443807,-3.0897698)"
     id="g88">
    <circle
       cx="29.013"
       cy="33.122002"
       r="27.695999"
       id="circle10"
       style="fill:#f9f9f9" />
    <g
       transform="translate(-0.31783,-0.15423)"
       id="g86">
      <g
         id="g30">
        <rect
           x="0.073022999"
           y="4.4429998"
           width="23.066"
           height="19.122"
           id="rect12"
           style="fill:#f0ecdf;stroke:#535e74;stroke-width:2.398" />
        <g
           id="g24"
           style="fill:#d6d1bc">
          <rect
             x="2.6392"
             y="7.8969002"
             width="17.934"
             height="1.7954"
             ry="0.57976002"
             id="rect14" />
          <rect
             x="2.6392"
             y="10.403"
             width="17.934"
             height="1.7954"
             ry="0.57976002"
             id="rect16" />
          <rect
             x="2.6392"
             y="12.908"
             width="17.934"
             height="1.7954"
             ry="0.57976002"
             id="rect18" />
          <rect
             x="2.6392"
             y="15.414"
             width="17.934"
             height="1.7954"
             ry="0.57976002"
             id="rect20" />
          <rect
             x="2.6392"
             y="17.92"
             width="17.934"
             height="1.7954"
             ry="0.57976002"
             id="rect22" />
        </g>
        <rect
           x="11.512"
           y="15.414"
           width="5.9155002"
           height="1.7954"
           ry="0.57976002"
           id="rect26"
           style="fill:#8798cc" />
        <rect
           x="5.0447001"
           y="17.92"
           width="5.5444002"
           height="1.7954"
           ry="0.57976002"
           id="rect28"
           style="fill:#8798cc" />
      </g>
      <g
         id="g58">
        <rect
           x="17.952999"
           y="37.773998"
           width="23.066"
           height="24.502001"
           id="rect32"
           style="fill:#f0ecdf;stroke:#535e74;stroke-width:2.39820004;stroke-linecap:square" />
        <g
           id="g48"
           style="fill:#d6d1bc">
          <rect
             x="20.445"
             y="41.061001"
             width="17.934"
             height="1.7954"
             ry="0.57976002"
             id="rect34" />
          <rect
             x="20.445"
             y="43.567001"
             width="17.934"
             height="1.7954"
             ry="0.57976002"
             id="rect36" />
          <rect
             x="20.445"
             y="46.071999"
             width="17.934"
             height="1.7954"
             ry="0.57976002"
             id="rect38" />
          <rect
             x="20.445"
             y="48.577999"
             width="17.934"
             height="1.7954"
             ry="0.57976002"
             id="rect40" />
          <rect
             x="20.445"
             y="51.084"
             width="17.934"
             height="1.7954"
             ry="0.57976002"
             id="rect42" />
          <rect
             x="20.445"
             y="53.589001"
             width="17.934"
             height="1.7954"
             ry="0.57976002"
             id="rect44" />
          <rect
             x="20.445"
             y="56.095001"
             width="17.934"
             height="1.7954"
             ry="0.57976002"
             id="rect46" />
        </g>
        <g
           id="g56"
           style="fill:#8798cc">
          <rect
             x="22.709"
             y="46.071999"
             width="5.9155002"
             height="1.7954"
             ry="0.57976002"
             id="rect50" />
          <rect
             x="30.358"
             y="41.061001"
             width="5.5444002"
             height="1.7954"
             ry="0.57976002"
             id="rect52" />
          <rect
             x="31.934"
             y="51.084"
             width="5.9155002"
             height="1.7954"
             ry="0.57976002"
             id="rect54" />
        </g>
      </g>
      <path
         d="m 9.1259,18.377 c -0.63972,7.6948 -0.55406,14.438 2.1987,16.988 l 2.4874,-2.1544 2.3384,9.3009 -9.669,-1.913 2.0479,-2.1217 c -7.0694,-6.0707 -2.2625,-12.898 0.59658,-20.1 z"
         id="path60"
         inkscape:connector-curvature="0"
         style="fill:#e28d20" />
      <path
         d="m 35.27,51.989 c 6.7383,-3.7703 11.126,-9.3259 11.702,-13.034 l -3.43,-1.021 6.6588,-6.9749 4.3993,8.5051 -3.4855,0.06952 c -1.0111,6.2596 -8.2749,10.801 -15.844,12.455 z"
         id="path62"
         inkscape:connector-curvature="0"
         style="fill:#e28d20" />
      <g
         id="g80">
        <rect
           x="35.533001"
           y="9.7508001"
           width="23.066"
           height="19.122"
           id="rect64"
           style="fill:#f0ecdf;stroke:#535e74;stroke-width:2.39820004;stroke-linecap:square" />
        <g
           id="g76"
           style="fill:#d6d1bc">
          <rect
             x="38.443001"
             y="13.205"
             width="17.934"
             height="1.7954"
             ry="0.57976002"
             id="rect66" />
          <rect
             x="38.443001"
             y="15.71"
             width="17.934"
             height="1.7954"
             ry="0.57976002"
             id="rect68" />
          <rect
             x="38.443001"
             y="18.216"
             width="17.934"
             height="1.7954"
             ry="0.57976002"
             id="rect70" />
          <rect
             x="38.443001"
             y="20.722"
             width="17.934"
             height="1.7954"
             ry="0.57976002"
             id="rect72" />
          <rect
             x="38.443001"
             y="23.226999"
             width="17.934"
             height="1.7954"
             ry="0.57976002"
             id="rect74" />
        </g>
        <rect
           x="44.483002"
           y="18.216"
           width="5.5444002"
           height="1.7954"
           ry="0.57976002"
           id="rect78"
           style="fill:#8798cc" />
      </g>
      <path
         d="M 46.957,19.096 C 40.613,14.6946 37.0824,15.5745 33.498,16.6837 l 0.60611,3.3474 -9.208,-2.7414 5.6406,-7.5716 1.6641,2.9889 c 6.1993,-2.0154 9.9492,0.31224 14.756,6.389 z"
         id="path82"
         inkscape:connector-curvature="0"
         style="fill:#e28d20" />
      <path
         d="m 30.716,11.741 -4.5623,5.2459 6.1457,-2.4457 z"
         id="path84"
         inkscape:connector-curvature="0"
         style="fill:none" />
    </g>
  </g>
</svg>
