<?xml version="1.0" standalone="no"?>
<!DOCTYPE svg PUBLIC "-//W3C//DTD SVG 20010904//EN"
 "http://www.w3.org/TR/2001/REC-SVG-20010904/DTD/svg10.dtd">
<svg version="1.0" xmlns="http://www.w3.org/2000/svg"
 width="700.000000pt" height="700.000000pt" viewBox="0 0 700.000000 700.000000"
 preserveAspectRatio="xMidYMid meet">
<metadata>
Created by potrace 1.11, written by Peter Selinger 2001-2013
</metadata>
<g transform="translate(0.000000,700.000000) scale(0.100000,-0.100000)"
fill="#000000" stroke="none">
<path d="M3269 6886 c-2 -2 -42 -7 -89 -11 -47 -4 -94 -9 -105 -11 -11 -2 -42
-6 -70 -9 -121 -14 -374 -73 -545 -127 -244 -77 -531 -211 -754 -351 -54 -34
-212 -141 -216 -147 -3 -4 -12 -11 -21 -16 -88 -49 -411 -351 -541 -504 -351
-415 -594 -885 -718 -1392 -17 -68 -32 -134 -35 -148 -10 -57 -15 -86 -19
-106 -2 -12 -8 -45 -11 -75 -4 -30 -9 -65 -11 -79 -26 -172 -25 -656 1 -830 2
-14 6 -45 10 -70 64 -453 230 -903 480 -1305 86 -140 225 -328 324 -440 43
-48 261 -266 316 -316 124 -111 383 -296 550 -391 218 -124 515 -252 705 -304
216 -59 365 -92 493 -109 27 -4 57 -8 66 -10 102 -19 623 -28 741 -11 30 4 75
9 100 12 240 28 561 107 788 195 307 119 667 323 887 503 175 143 356 317 470
451 33 39 63 72 66 75 3 3 25 32 50 65 24 33 47 62 50 65 3 3 36 50 72 105 37
55 71 105 75 110 19 24 96 166 156 285 87 173 208 484 231 590 2 8 11 44 20
80 9 36 19 74 21 85 2 11 8 40 14 65 10 46 25 133 35 205 4 22 8 51 10 65 21
136 28 582 12 730 -8 71 -30 235 -43 310 -34 203 -129 513 -227 740 -61 142
-229 450 -249 458 -4 2 -8 8 -8 14 0 16 -150 222 -241 333 -130 156 -337 360
-495 485 -102 82 -327 240 -340 240 -3 0 -18 8 -32 19 -45 31 -371 201 -387
201 -3 0 -24 9 -48 19 -129 59 -435 155 -592 187 -44 9 -142 26 -170 31 -16 2
-41 6 -55 9 -14 2 -52 6 -85 10 -33 3 -71 8 -85 11 -28 6 -546 14 -551 9z
m346 -1511 c105 -18 208 -76 295 -165 304 -310 161 -833 -260 -949 -124 -35
-270 -23 -388 30 -292 133 -416 480 -276 775 73 154 250 288 409 309 28 4 51
8 53 10 5 4 125 -3 167 -10z m235 -1458 c19 -9 46 -34 60 -55 l25 -37 0 -707
c0 -622 2 -708 15 -709 8 0 56 -1 105 -3 113 -3 157 -24 193 -91 13 -24 16
-67 17 -225 1 -107 -3 -208 -8 -225 -13 -40 -54 -84 -94 -101 -26 -11 -150
-14 -663 -14 -687 0 -678 -1 -723 57 -39 48 -44 80 -42 283 2 203 5 220 49
269 31 35 61 43 169 46 55 2 102 6 105 9 3 3 6 199 6 436 1 376 -1 430 -14
431 -8 0 -53 1 -100 1 -47 0 -97 5 -111 10 -34 12 -84 65 -96 103 -5 17 -9
120 -8 231 1 190 2 202 24 232 25 35 67 68 96 74 11 3 232 4 490 4 428 -1 473
-3 505 -19z"/>
</g>
</svg>
