<svg version="1" xmlns="http://www.w3.org/2000/svg" width="1226.667" height="1226.667" viewBox="0 0 920.000000 920.000000"><path d="M0 168.5V331H113.7l-5.4 14.7c-13.1 35.4-18.1 61.8-17 88.3.7 16.4 3.2 28.6 8.5 41.6 7.5 18.9 18.5 34.8 35.5 51.7l10.9 10.7-15.2 15.7-15.2 15.7 33.8 6.7c75.4 15 109.9 21.7 110.2 21.4.5-.5-34.2-137.5-34.9-137.5-.5 0-26.2 21.7-34.8 29.4l-2.3 2.1-4.5-5c-16.3-18.3-27-50.2-31.3-93-1.3-12.8-3-59.2-2.3-61.2.4-1.1 22.1-1.3 117.7-1.5l117.1-.3.3-120c.2-66 0-139-.4-162.3L383.8 6H0v162.5zm348 0V295H150.7l.7-15.8c.3-8.6.9-17.8 1.3-20.5l.6-4.7h9.2c9.3 0 9.3 0 12-3.2 2.5-2.9 2.7-3.8 2.3-10.4-.3-6-.8-7.7-2.7-9.8l-2.4-2.6H99.1l-2.8 2.4c-2.6 2.3-2.8 2.9-2.8 10.4 0 7.1.3 8.3 2.4 10.6l2.4 2.6H122c13 0 23.9.3 24.3.6.3.3-.5 2.9-1.9 5.8-1.3 2.8-5.3 11.6-8.7 19.6l-6.4 14.5H36.5l-.3-125c-.1-68.8 0-125.6.3-126.3.3-.9 32.5-1.2 156-1.2H348v126.5z"/><path d="M195.3 191.2c-3.3 1.6-4.6 5.9-4.1 13.9.6 11.6-2.2 10.9 44.5 10.9h39.4l2.4-2.5c2.2-2.1 2.5-3.3 2.5-9.4 0-8.1-1.2-11.4-4.7-13-3.2-1.5-76.9-1.4-80 .1zM535.7 86.7c-.4.3-.7 12.7-.7 27.4V141l-2.7.6c-1.6.3-8 1.9-14.3 3.6-6.3 1.7-12.4 3.1-13.4 3.2-1.6.1-4.5-4.4-14-21.6-6.7-12-12.3-21.8-12.6-21.7-.3 0-9.1 11.6-19.6 25.7-54 72.5-63.1 84.8-63.8 85.9-.4.8 1.1 1.7 5.1 2.9 6.5 1.8 27.2 7.9 43.8 12.9 6.1 1.8 25 7.5 42 12.5 17.1 5 34.3 10.2 38.3 11.5 5.7 1.9 7.2 2.1 7.2 1 0-.8-1.5-9.9-3.4-20.2-1.9-10.3-3.8-21.1-4.2-23.9l-.6-5.2 5.5-1.6c3-.9 5.8-1.6 6.1-1.6.3 0 .7 46.2.8 102.7l.3 102.8 192.3.3 192.2.2V86H728.2c-105.5 0-192.2.3-192.5.7zm347.8 161.8v126l-155.7.3-155.8.2V196.3l6.8-.6c37.6-3.6 74.2 5.9 118.9 31 3.5 1.9 6.5 3.8 6.8 4.3.2.4-2.1 1-5.2 1.2-8.2.7-10.3 3.4-10.3 13.3 0 6.4.3 7.8 2.4 10.2l2.4 2.8 36 .3 36 .3 3.1-2.7c3-2.5 3.1-2.8 3.1-10.8s-.4-9.3-4.3-12.8c-.1-.1-12.1-.4-26.6-.7l-26.5-.6-7.5-9c-9.4-11.4-36.2-38.2-46.1-46.1-23.9-19.4-49-31.6-73.6-35.9-4.8-.8-10.2-1.5-12-1.5H572v-17l155.8.2 155.7.3v126zM762.5 437.9c-6.6 6.9-28.7 30-49 51.4-20.4 21.3-37.1 39-37.2 39.5-.2.4 5.7 2.5 13 4.6 7.2 2.2 18.6 5.6 25.2 7.5l12 3.7-.3 3.4c-.6 6.3-8 26.8-13.8 38.1-6.7 13-20.3 33.7-30.8 46.9-10.6 13.2-25.6 29.1-26.7 28.4-.6-.3-.9-30.4-.9-76.2v-75.7l-192-.3-192-.2v406h384V705.1l9.8-5.2c45.4-24.6 80-54.5 101.8-88.2 9.5-14.7 17.9-34.6 21.2-50.3l1.7-7.9 23.5-.6c31.6-.8 29.4-.7 28.3-2.2-.6-.6-5.6-10.2-11.3-21.2-29.6-57.6-53.3-103.1-53.9-103.6-.3-.3-6 5.1-12.6 12zM618 620.5v75.4l-6.7 5.4c-7.7 6-24 17.6-32.5 23.1l-5.7 3.6h-32.4c-21.6 0-33.5.4-35.7 1.1-7.6 2.7-8.3 20.6-.9 24.4 4.2 2.2 75.6 2.2 79.9 0 3.7-1.9 4.3-4.3 3.9-14.3l-.4-7.8 14.4-5c7.9-2.7 14.7-5.1 15.2-5.2.5-.2.9 32.8.9 78.7V879l-155.7-.2-155.8-.3-.3-165.5c-.1-91 0-166.1.3-166.8.3-.9 32.5-1.2 156-1.2H618v75.5z"/><path d="M478.5 579.5c-2.3 2.2-2.5 3.2-2.5 10.8 0 13.6-2.8 12.7 41.2 12.7 43.8 0 41.1.8 41.6-11.9.4-7.8.3-8.1-2.6-11.1l-3-3H480.9l-2.4 2.5zM364.2 653.7c-3.7 1.5-5.8 15.5-3 20.6 2.4 4.7 2.2 4.6 43.6 4.7 37.7 0 39.3-.1 41.2-2 2.6-2.6 3.3-5.8 2.8-13.7-.7-10.9 1.9-10.3-44.2-10.2-21.5 0-39.7.3-40.4.6z"/></svg>